<?xml version="1.0" encoding="UTF-8"?>
<!-- Created with Inkscape (http://www.inkscape.org/) -->
<svg width="5in" height="4.479in" version="1.0" xmlns="http://www.w3.org/2000/svg" xmlns:cc="http://creativecommons.org/ns#" xmlns:dc="http://purl.org/dc/elements/1.1/" xmlns:rdf="http://www.w3.org/1999/02/22-rdf-syntax-ns#" xmlns:xlink="http://www.w3.org/1999/xlink">
 <defs>
  <radialGradient id="radialGradient7395" cx="165.52" cy="195.8" r="141.97" gradientTransform="matrix(.80214 .15702 -.095086 .48574 10.518 518.66)" gradientUnits="userSpaceOnUse">
   <stop stop-color="#c32a0a" offset="0"/>
   <stop stop-color="#a60909" offset="1"/>
  </radialGradient>
 </defs>
 <metadata>
  <rdf:RDF>
   <cc:Work rdf:about="">
    <dc:format>image/svg+xml</dc:format>
    <dc:type rdf:resource="http://purl.org/dc/dcmitype/StillImage"/>
   </cc:Work>
  </rdf:RDF>
 </metadata>
 <g transform="translate(-19.606 -493.38)">
  <path d="m282.48 800.69c21.644-36.132-42.47-80.506-51.171-118.15-8.7304-37.767-52.855-108.05-132.74-104.88-11.91 0.47192-5.5369 36.776 5.4853 35.112 81.858-2.6178 104.37 70.476 87.321 143.52-19.965 4.3066-37.984 54.31-95.281 51.62-29.082 37.965 49.468 16.947 63.919 13.508 51.98-11.401 95.744 23.872 122.46-20.733z" fill="#f9e181" fill-rule="evenodd"/>
  <path d="m97.306 673.91s0.22741-10.449 0.17057-14.669c-0.03727-2.7672-5.7557-4.9828-5.117-7.6755 0.69282-2.921 8.3276-1.9674 8.6989-4.9464 0.43859-3.5194-9.2508-4.7149-8.5283-8.1872 0.60025-2.8848 8.7514-0.50073 9.2106-3.4113 0.52806-3.347-7.8019-3.7773-8.8694-6.9932-0.68433-2.0616 2.8954-7.3072 1.9968-9.2848-2.6733-5.8836-1.4418-10.835-0.30832-12.512 2.469-3.6533 2.5851 7.0822 6.595 6.1717 2.0851-0.47341-0.14171 6.3268-0.26693 8.4612-0.14536 2.4779 3.0634 5.7522 2.0468 8.0166-1.4153 3.1526-10.016 1.8386-10.234 5.2876-0.23876 3.7822 10.798 3.3946 10.405 7.1638-0.3456 3.308-9.6047 0.9982-10.234 4.2642-0.69148 3.5886 8.5405 4.8771 8.6989 8.5283 0.0817 1.8853-4.0936 4.7759-4.0936 4.7759m1.0234 80.166s0.11608 16.908 0.34114 25.585c0.04358 1.6472-3.3678 2.7918-3.2408 4.4347 0.25102 3.2467 7.6951 4.4191 7.6755 7.6755-0.0181 3.0033-7.9408 4.0921-7.1638 6.9932 0.64215 2.3976 7.5445-0.39003 8.0166 2.0468 0.54316 2.8033-7.5931 2.7744-7.6755 5.6287-0.08807 3.0518 10 4.3182 7.846 6.4815-4.7418 4.7615-0.40302 8.6822-2.5999 9.0521-6.1066 1.0282-6.3199 5.1748-7.7996 3.7681-1.3961-1.3271 1.6575-8.0258 1.5301-13.673-0.07386-3.3441 9.7297-2.1132 9.7223-5.4581-7e-3 -3.161-8.9549-1.9664-9.2106-5.117-0.22688-2.7958 7.4631-2.9972 7.3343-5.7993-0.12054-2.6229-7.1919-2.154-7.3343-4.7759-0.15779-2.9048 7.2601-3.2417 7.5049-6.1404 0.17705-2.0961-4.6053-5.2876-4.6053-5.2876" fill="none" stroke="#f2a832" stroke-width="1.3508"/>
  <g fill-rule="evenodd">
   <g>
    <path d="m273.45 796.16c-0.23979 0.74743-0.83042 1.2215-1.3183 1.0583-0.48793-0.16326-0.68931-0.90238-0.4495-1.6498 0.23979-0.74743 0.83042-1.2215 1.3184-1.0583 0.48792 0.16326 0.6893 0.90237 0.44949 1.6498zm-4.0083 8.1019c-0.2398 0.74743-0.83042 1.2215-1.3183 1.0583-0.48793-0.16326-0.68931-0.90238-0.44951-1.6498s0.83042-1.2215 1.3184-1.0583c0.48792 0.16326 0.6893 0.90237 0.4495 1.6498z" fill="#e4c75d" stroke="#6e750f" stroke-linejoin="round" stroke-width=".87803"/>
    <path d="m103.69 611.44c-2.68-0.01-3.4977-5.4877-3.7389-7.1159s1.6081-2.5529 2.5328-1.5679c0.92466 0.98496 0.18189 6.633 1.9151 6.854l14.32 1.524-6.748-3.427c-2.497-1.0293-1.4013-5.7699-1.0855-7.4752 0.22706-1.2262 2.5869-1.3072 2.6741-0.29118 0.1962 2.2871-2.51 5.3191-0.0646 6.3191l12.382 5.442c0.69242 0.28316-7.1864-4.5679-8.5082-5.6126-1.2463-0.98497-0.80953-4.8474-0.3472-6.2545s2.8964-1.2761 3.1212-0.056c0.39227 2.129-2.4585 4.5803-0.34114 5.7514l12.141 7.5337c0.79779 0.44125-5.5867-4.8339-7.1755-6.5482-1.5277-1.6483-0.21137-5.3743 0.29117-6.6809s2.5731-1.138 2.8946 0.12061c0.48244 1.8884-2.4914 3.2539-0.68226 5.6661 1.8091 2.4122 13.189 11.103 12.705 10.578l-7.5812-8.6192c-1.7562-1.9076 0.025-5.4504 1.0648-7.4692 0.64334-1.249 2.9064-0.77453 2.9067 0.51775 5.8e-4 2.6961-3.6117 4.0816-1.7945 6.1072l9.9994 11.152-5.7842-8.7398c-1.2636-2.1822 0.42878-5.6911 1.9504-7.8103 0.91456-1.2737 2.5437-0.68346 2.7447 0.72364 0.20101 1.4071-4.0902 4.1951-2.3622 6.4397l8.9311 12.267-5.2336-8.8458c-1.2434-2.117 1.9614-7.0666 3.1273-8.2927 1.1659-1.2262 2.7947-0.54214 2.6741 1.1062s-4.8635 4.7534-3.1419 7.1634l9.9812 13.032c0.37411 0.52366-6.0188-8.8343-6.0279-11.472-9e-3 -2.6019 1.8816-5.2055 3.1479-6.3312s3.0554 0.0603 2.6534 1.6885c-0.40203 1.6282-3.6384 3.9006-3.2686 5.9694 0.36981 2.0688 2.9133 7.6144 4.1214 5.0973 1.2081-2.5171 4.7104-6.2826 6.2984-7.2073 1.588-0.92467 3.3825 0.34661 2.6388 2.015-0.74376 1.6684-8.0473 3.7202-6.7662 7.725 1.2811 4.0048 12.009 19.498 3.4977 3.1358-1.6069-3.0892 4.9248-7.8195 6.5129-8.8044 1.588-0.98497 2.8349 0.61827 2.1916 2.0857-0.64324 1.4674-6.2716 3.2168-6.3922 6.2923-0.12061 3.0755 3.5976 7.1001 3.9594 7.4217 0.36182 0.32162-1.8694-2.3117-1.4473-5.0656 0.42213-2.7539 4.4625-5.8294 6.0304-6.6335s3.0268 0.69321 2.5242 1.9797-5.0771 2.3622-5.5394 5.7392c-0.46233 3.377 2.8343 9.6487 3.2564 10.011 0.42213 0.36182-1.7086-4.9248-0.72366-7.8396 0.98497-2.9147 4.7-4.6136 6.2278-5.1362 1.5277-0.52263 2.975 0.88446 2.171 2.171s-5.3232 2.322-6.2278 5.3774c-0.90456 3.0554 1.8694 9.6688 2.4122 10.011s-0.70784-4.2084 0.41784-6.6809 3.1017-4.7324 5.492-5.3799c1.3365-0.36206 2.6224 1.2082 2.0271 2.0917-1.5862 2.3544-4.1427 1.9469-5.4895 4.3591-1.3468 2.4122-0.14913 9.9373 0.3936 10.54 0.54274 0.60304 1.0385-6.1967 2.9481-7.9455 1.9096-1.7488 5.1058-2.3318 6.6335-2.2916 1.5277 0.0402 3.4373 1.7488 2.5328 2.5328-0.90456 0.78395-5.9098 0.16081-7.9602 2.171-2.0503 2.0101-1.6294 9.8558-1.1269 10.378s0.92585-6.4184 3.2978-7.8456c2.372-1.4272 6.0158-2.4104 7.4631-2.2295 1.4473 0.18091 2.2668 2.0208 1.0416 2.6388-2.9568 1.4912-5.2313 1.4891-7.0488 2.2855-1.8132 0.79454-1.5502 13.193-1.0717 13.751 0.41617 0.48526 0.76562-6.9433 2.3898-9.3298 1.4266-2.0962 5.6131-3.0041 8.0808-3.2564 1.7975-0.18383 2.7447 1.7793 1.1768 2.6241-2.8516 1.5364-5.752 0.41031-6.8808 2.5035-1.8701 3.468-3.3111 6.2421-2.0796 13.826 2.0618 12.697 2.6827 6.7841 5.5212-4.0397 0.89009-3.3941 4.2504-3.684 8.322-3.7096 1.7911-0.0113 2.4263 1.9772 0.88564 2.6034-3.1274 1.2713-5.2221-0.23515-7.072 2.7362-2.2904 3.6788-4.9346 14.598-4.7537 15.362 0.18092 0.76386 2.8099-7.5434 5.2422-10.438s7.2566-3.8193 8.925-3.8595 2.4926 1.5076 1.2061 2.6534-6.4526 0.84426-8.925 4.2213c-2.4725 3.377-5.0174 13.136-4.8365 14.021s2.967-6.2416 5.9219-8.7141 8.724-3.1157 10.614-3.1358 2.2514 2.0302 0.72365 3.0152-7.0757 0.14071-9.8899 2.8946c-2.8142 2.7539-7.136 13.126-6.9953 13.629 0.1407 0.50254 4.3821-7.6988 7.3571-9.8296s8.9104-3.1778 10.493-2.4725c1.6846 0.7508 1.0713 2.742-1e-5 3.558-1.3776 1.0492-6.8144-0.28142-9.5281 2.0504-2.7137 2.3318-6.5531 10.593-6.2716 12.001s5.096-2.76 8.272-3.7449c3.176-0.98497 7.5234-0.6499 9.2722-0.26797s1.7836 2.2379 0.13524 2.9214c-1.6483 0.68345-5.5279-1.7287-8.6838-0.1206-3.1559 1.6081-8.8349 8.0868-8.9957 8.8105-0.16081 0.72366 5.0455-4.161 8.2014-5.0656 3.1559-0.90456 7.8597-0.36183 9.6487 0 1.789 0.36182 1.8091 2.0906 0 2.5328s-6.9953-1.9096-9.7693-0.24122-5.7691 9.2668-5.7892 9.8899c-0.0201 0.62314 2.9549-5.1259 5.6686-6.151 2.7137-1.0252 7.9401-0.38193 9.5281 0.36183 1.588 0.74375 0.86436 3.0956-0.72365 3.6182-1.588 0.52264-5.0053-2.4926-7.719-0.84426-2.7137 1.6483-7.6988 10.372-7.8396 11.217s4.3017-5.2063 6.9953-6.151c2.6936-0.94476 7.1159-0.92466 8.5632-0.24121 1.4473 0.68345 1.1056 2.6735-0.36183 3.0152-1.4674 0.34172-5.3068-1.4272-7.8396-0.24122-2.5328 1.186-6.7139 7.8396-6.8747 8.6838s3.4776-3.0152 5.9098-3.6183c2.4323-0.60305 6.6737-1.186 8.0808-0.72366 1.4071 0.46234 1.2664 2.3318-0.24122 2.774s-5.7088-0.60304-8.2014 0.60304-5.9746 6.062-5.6686 6.6335c2.7338 5.1058 4.6233-3.4374 6.9953-4.2213 2.372-0.78396 4.764-0.0603 6.0304 0s1.9499 2.2949-0.48244 2.4122c-3.7565 0.18112-10.08 0.41036-6.6335 3.2564 14.549 12.014 69.935 40.872 72.727 42.213 1.3127 0.63044-0.43332 3.0234-1.7488 1.9297-1.3155-1.0937-51.844-27.593-71.608-41.092-1.9411-1.3258-3.9471-0.49145-0.44356 2.1046 18.781 13.916 69.785 41.361 70.974 42.001 1.1422 0.61502-0.34594 2.574-1.1624 2.0324-0.87605-0.58116-58.096-31.054-71.808-43.163-4.428-3.9107-2.9744 1.4404 1.5596 4.9176 9.3166 7.145 67.908 40.714 69.001 41.223 1.1427 0.53114-0.20815 2.0704-0.87883 1.7646-0.67067-0.30579-67.885-37.485-72.599-44.599 2.7034 6.5147 71.105 44.089 72.275 44.949 1.1153 0.81927 0.41264 2.5104-0.81359 1.7963-16.801-10.429-48.214-27.229-72.035-42.272-1.5499-2.9361-1.9902 0.49674-0.59679 2.2993 8.5712 11.088 68.829 39.468 71.546 41.69 1.109 0.90696-0.18993 2.828-1.2709 1.8574-2.2868-2.0534-74.391-37.043-73.731-44.753 6.3893-74.584-8.6577-134.63-91.06-139zm7.6454 194.69-4.6306 1.9409c-1.9771 0.63765-1.3251 3.4602-1.2052 5.8343 0.0677 1.3409 2.3782 1.229 2.408 0.22499 0.13457-4.533-3.142-4.3484 9.0406-8.5838-6.974 3.5386-4.76 6.4351-4.534 9.2399 0.11069 1.3736 2.1837 1.2635 2.6156 0.26283 0.34274-0.79416-1.1714-5.7897 0.0687-6.315 2.4742-1.0482 10.74-7.6829 14.678-10.099 0.20517-0.12588-8.9565 6.4218-9.0033 7.9612-0.092 3.0249 3.5741 6.5583 4.0232 7.2234 0.44724 0.66227 1.8136 0.20783 2.1106-0.36183 1.1-2.1098-4.8608-6.157-3.0152-7.6586l18.453-15.016-15.016 13.327c-1.582 1.4655 2.5073 7.5997 3.558 8.925 0.4869 0.61421 2.152-0.12898 2.4725-0.84426 1.0277-2.2936-5.0882-5.998-3.2564-7.719l7.8396-6.6938-4.5831 5.2465c-1.6811 1.8111 1.5486 7.2434 3.3167 8.5029 0.78553 0.55955 2.6426-0.35392 2.9549-1.2664 0.67667-1.9767-5.093-5.6963-3.6183-7.1762l17.247-17.307-9.709 12.061c-1.5776 2.0763 2.8125 7.9893 5.2465 8.925 0.67819 0.26073 2.0162-0.11158 2.2916-0.78395 0.88935-2.1712-6.9841-5.6017-5.4274-7.3571l15.739-17.91-13.508 16.644c-1.4219 1.8304 1.9114 6.8613 3.9801 7.538 0.76896 0.25157 2.1759-0.43228 2.4122-1.2061 0.55832-1.8285-5.1451-5.1026-3.7992-6.6335l15.8-17.971-12.362 15.558c-1.3112 1.6501 2.1564 6.8143 4.2213 7.2365 0.86051 0.17594 2.2995-0.7068 2.4725-1.5679 0.37362-1.8599-5.1277-5.2226-3.8595-6.6335l12.242-15.257-9.3472 12.965c-1.2378 1.4718 2.5606 5.9865 4.4625 6.2716 0.88376 0.13251 2.4265-0.68061 2.5328-1.5679 0.20841-1.7402-5.5617-4.3498-4.3419-5.6083l12.785-14.473c3.6418-3.7574-7.1189 5.6279-6.8747 10.855 0.0844 1.8054 2.066 5.3244 3.8595 5.548 0.76186 0.095 1.9952-0.68827 2.1106-1.4473 0.246-1.6173-3.4609-3.0079-3.4976-4.6434-1.1388-1.8105 7.2703-11.149 10.674-14.051-3.1022 1.9908-2.9675 4.9423-2.7569 6.8765 0.21627 1.9862 0.16169 6.2988 2.1538 6.4508 0.85471 0.0652 1.9778-1.1932 1.99-2.0504 0.0252-1.7668-1.1761-3.648-1.5922-5.3653-4.4298-18.286 76.689 36.045 77.613 36.264 0.90114 0.21361 1.8105-0.98656 1.1607-1.8463-0.60959-0.80647-65.039-42.505-77.671-41.043 8.3434-7.0512 78 37.583 78.841 37.713s1.881-1.292 1.0835-2.0204c-0.79746-0.72837-63.637-39.748-78.958-41.026 6.4608-7.4713 79.589 37.807 80.789 37.885 1.2003 0.0773 1.4886-1.2904 1.0348-1.7604s-68.978-41.236-76.693-40.387c-7.5461 0.83068-1.7912-0.89159 2.4435-2.2746 4.126-1.3475 74.791 39.796 76.119 40.4s2.5524-2.4016 0.94848-2.0086c-1.6039 0.39299-73.234-42.821-78.187-40.106-11.328 1.7218-61.061 42.583-78.346 48.158zm168.25-24.814c-0.2398 0.74743-0.83043 1.2215-1.3184 1.0583-0.48793-0.16326-0.68931-0.90238-0.4495-1.6498 0.2398-0.74743 0.83042-1.2216 1.3184-1.0583 0.48792 0.16326 0.6893 0.90237 0.4495 1.6498zm-1.7909 3.5819c-0.23979 0.74743-0.83042 1.2215-1.3183 1.0583-0.48793-0.16326-0.68931-0.90238-0.4495-1.6498 0.23979-0.74743 0.83042-1.2215 1.3184-1.0583 0.48792 0.16326 0.6893 0.90237 0.44949 1.6498zm-2.9849 5.6287c-0.23979 0.74743-0.83042 1.2215-1.3183 1.0583-0.48793-0.16326-0.68931-0.90238-0.4495-1.6498 0.23979-0.74743 0.83042-1.2215 1.3184-1.0583 0.48792 0.16326 0.6893 0.90237 0.44949 1.6498zm-2.1321 3.6672c-0.23979 0.74744-0.83042 1.2216-1.3183 1.0583-0.48793-0.16327-0.68931-0.90238-0.4495-1.6498 0.23979-0.74743 0.83042-1.2216 1.3183-1.0583 0.48793 0.16326 0.68931 0.90237 0.4495 1.6498zm4.3494-0.85283c-0.23979 0.74744-0.83042 1.2216-1.3183 1.0583-0.48793-0.16327-0.68931-0.90238-0.44951-1.6498 0.2398-0.74742 0.83043-1.2215 1.3184-1.0583 0.48793 0.16326 0.68931 0.90237 0.4495 1.6498zm1.5351-4.9464c-0.2398 0.74743-0.83042 1.2215-1.3184 1.0583-0.48792-0.16326-0.6893-0.90238-0.4495-1.6498s0.83042-1.2215 1.3184-1.0583c0.48792 0.16326 0.6893 0.90237 0.4495 1.6498zm-7.4196 10.063c-0.2398 0.74743-0.83042 1.2215-1.3183 1.0583-0.48793-0.16326-0.68931-0.90237-0.44951-1.6498 0.2398-0.74744 0.83042-1.2215 1.3184-1.0583 0.48792 0.16326 0.6893 0.90238 0.4495 1.6498zm3.7525-0.42641c-0.2398 0.74743-0.83042 1.2215-1.3183 1.0583-0.48793-0.16326-0.68931-0.90238-0.44951-1.6498s0.83042-1.2215 1.3184-1.0583c0.48792 0.16326 0.6893 0.90237 0.4495 1.6498zm-2.3879 4.7758c-0.2398 0.74743-0.83042 1.2216-1.3183 1.0583-0.48793-0.16326-0.68931-0.90237-0.44951-1.6498 0.2398-0.74744 0.83042-1.2216 1.3184-1.0583 0.48792 0.16326 0.6893 0.90238 0.4495 1.6498zm-4.4347 0.25585c-0.23979 0.74744-0.83042 1.2216-1.3183 1.0583-0.48793-0.16326-0.68931-0.90238-0.4495-1.6498 0.23979-0.74743 0.83042-1.2215 1.3184-1.0583 0.48792 0.16326 0.6893 0.90237 0.44949 1.6498zm0.25586 6.311c-0.2398 0.74743-0.83043 1.2215-1.3184 1.0583-0.48793-0.16326-0.68931-0.90237-0.4495-1.6498 0.2398-0.74743 0.83042-1.2215 1.3184-1.0583 0.48792 0.16326 0.6893 0.90238 0.4495 1.6498zm-2.7291-1.4498c-0.23979 0.74744-0.83042 1.2216-1.3183 1.0583-0.48793-0.16327-0.68931-0.90238-0.4495-1.6498 0.23979-0.74743 0.83042-1.2216 1.3184-1.0583 0.48792 0.16326 0.6893 0.90237 0.44949 1.6498zm-0.76754 5.9698c-0.2398 0.74744-0.83042 1.2216-1.3184 1.0583-0.48792-0.16326-0.6893-0.90238-0.4495-1.6498s0.83042-1.2215 1.3184-1.0583c0.48792 0.16326 0.6893 0.90238 0.4495 1.6498zm-1.6204-2.3026c-0.2398 0.74743-0.83042 1.2215-1.3183 1.0583-0.48793-0.16326-0.68931-0.90237-0.44951-1.6498 0.2398-0.74743 0.83042-1.2215 1.3184-1.0583 0.48792 0.16326 0.6893 0.90238 0.4495 1.6498zm-2.6438 5.6287c-0.2398 0.74743-0.83042 1.2215-1.3183 1.0583-0.48793-0.16326-0.68931-0.90237-0.44951-1.6498 0.2398-0.74743 0.83042-1.2215 1.3184-1.0583s0.6893 0.90238 0.4495 1.6498z" fill="#e4c75d" stroke="#6e750f" stroke-width=".87803"/>
    <path d="m85.595 814.07c5.7302-6.8338 23.925 34.964 97.942-27.524 6.67-10.546 53.905 22.23 74.388 33.448 7.136 3.908 32.584-37.833 20.442-43.964-15.095-8.5919-59.886-30.959-59.822-36.175 8.8058-72.812-15.73-120.73-67.147-141.7-43.777-17.852-60.458 9.183-65.332 1.7667-4.7646-7.2504-13.222-1.7485-18.063 4.6122-36.64 48.143-46.148 137.88 6.7884 207.36 3.3699 4.423 8.4337 4.9977 10.803 2.1715zm209.51-63.805c21.404 10.375-33.45 108.27-51.618 96.599-53.462-31.5-131.62-19.157-136.65 49.964-0.0884 2.6456-9.421 2.4531-9.3519-1.8641 0.68683-42.905-8.9872-54.609-22.091-67.961-57.766-58.863-54.5-181.84-4.1864-236.8 10.892-11.898 28.33-28.912 29.006-66.731 0.0727-4.066 10.97-3.0838 10.804 0.53252-0.3325 7.248-4.3184 30.414 6.3645 36.734 37.196 22.003 69.129 24.362 98.124 60.236 21.951 27.158 23.466 53.162 29.428 79.119 5.4747 23.834 24.292 37.628 50.173 50.173z" fill="#ecfaff" stroke="#adabf7" stroke-width="2.0262"/>
   </g>
   <path d="m258.33 818.69c7.5798 2.8056 28.68-36.906 20.006-41.169-11.207-5.8312-45.642-24.972-63.44-36.183-5.1343-3.6127 10.963-31.355-1.3267-67.058-12.253-35.595-44.874-71.004-74.898-75.501-30.142-4.5142-41.413 1.9003-48.726 12.905-7.2574 10.921-10.93 42.181-12.543 51.5-1.6098 9.299-15.028 11.587-15.197-1.2061-0.16754-12.672 17.22-68.221 41.489-73.451 24.219-5.2188 49.017 2.4679 68.144 14.714 19.041 12.192 42.802 40.136 50.855 74.012 8.9674 37.718-4.847 62.334-0.68226 64.567 6.7653 3.627 43.418 25.849 59.14 34.64 8.6697 4.9491-14.621 50.354-24.706 44.134-13.082-7.4126-32.12-19.817-55.434-32.237-2.7173-1.6694-6.6254-0.19094-9.5517 2.3879-8.5008 7.4917-26.887 27.668-65.156 33.943-12.406 2.0341-31.169 3.988-40.595-10.405-10.63-16.23-19.524-55.297-18.933-63.11 0.68857-9.1022 10.457-9.8392 12.451-1.5351 3.0427 12.641 4.4615 28.668 6.8227 40.424 9.2185 33.911 30.671 30.086 58.504 20.127 14.312-5.4482 33.573-18.943 41.144-27.761 5.6138-6.5382 51.303 24.65 72.632 36.26z" fill="url(#radialGradient7395)"/>
   <path d="m256.63 816.6c1.2569 0.7181 2.3921-2.1509 1.3267-2.4725-23.679-13.347-65.239-39.036-72.486-39.077-7.0657-0.0397-13.769 3.4976-14.533 5.7892s3.9791 5.5455 6.2113 7.0556c0.50152 0.33927 1.7279-1.1461 1.4473-1.6885-0.92552-1.7894-6.7966-3.9889-5.0656-5.3068 1.7689-1.3468 4.0286-3.6507 11.578-3.7992 7.5508-0.14847 47.895 26.001 71.521 39.499zm4.1007-6.9953c0.73166 0.42084 0.15796 3.0005-1.2061 2.3519-1.4368-0.68326-66.419-41.789-73.873-40.464-7.5124 1.335-20.882 11.022-22.735 13.991-1.8694 2.9951 6.6548 5.7607 7.2365 7.719 0.3419 1.1509-1.0258 2.3863-1.99 1.6885-1.8286-1.3233-9.2266-5.0053-7.719-9.4678 1.5259-4.5167 15.954-15.321 25.388-15.92 9.494-0.60321 52.43 27.18 74.898 40.102zm5.7289-9.5281c-21.736-13.425-65.823-38.098-77.431-40.524-11.666-2.439-42.206 30.219-71.461 44.263-2.6372 1.2661-0.44251 9.4053 1.0252 11.639 0.38165 0.58078 2.4879 0.1235 2.4122-0.48243-0.24588-1.9671-3.4831-8.8678-1.2664-9.9502 25.679-12.539 57.016-45.488 69.772-43.178 12.745 2.3081 53.364 27.584 75.561 40.223 0.78719 0.44823 2.1669-1.5083 1.387-1.99zm1.7604-1.9681c-28.418-17.588-75.878-39.832-75.661-45.115 2.6904-65.47-2.3971-136.66-84.454-142.31-3.189-0.21946-2.9361-7.3705-2.2562-9.9045 0.2046-0.7626 1.8492-0.78574 2.1697-0.0694 1.0464 2.3391-2.1583 8.05 0.98682 8.2001 82.679 3.9465 90.387 84.298 85.434 141.9-0.76637 8.9122 44.446 25.409 74.493 44.744 0.91106 0.58625 0.22772 3.1364-0.71206 2.5547zm-5.9214 8.7222c0.85307 0.46818 2.163-1.7335 1.3267-2.2313-22.199-13.213-68.782-40.956-77.551-40.042-8.7631 0.91332-29.897 17.697-48.183 33.107-2.0978 1.7679 3.1662 9.3776 4.8847 11.096 0.53295 0.53296 2.4078-0.19779 2.2916-1.2664-0.20629-1.8966-6.5587-7.3324-4.5228-9.1662 16.589-14.942 36.821-30.36 45.53-31.66 8.718-1.3013 53.578 27.734 76.225 40.163zm7.9602-13.749c1.0041 0.62582 2.6682-2.1194 1.3724-2.8964-21.143-12.676-72.363-33.296-72.17-44.201 0.89331-50.426-5.4988-103.05-42.375-127.34-2.4914-1.6408 4.3305-5.3344 5.0338-7.7371 0.26162-0.89389-0.81226-1.9613-1.7165-1.5533-3.2887 1.4838-7.8816 8.7042-5.5016 10.227 32.637 20.886 44.292 66.087 42.328 126.83-0.3415 10.564 51.785 33.435 73.029 46.676zm2.774-5.0656c1.045 0.5864 2.2531-1.814 1.2061-2.4122-20.941-11.965-69.946-37.084-70.435-44.806-1.6483-26.011-3.9435-51.12-9.7693-79.18-0.54015-2.6016 7.6052-3.7906 8.8239-5.6186 0.55022-0.82533-0.45486-2.3052-1.3474-2.0077-2.7257 0.90858-9.9974 4.2666-9.5975 6.826 5.305 33.78 8.2503 48.943 9.659 80.281 0.36 7.9651 50.122 34.943 71.461 46.917zm2.6534-5.0656c0.9003 0.52086 2.2515-1.9577 1.3267-2.4725-20.575-11.453-67.226-35.041-69.35-42.575-1.7839-6.3267-5.0861-33.86-4.465-42.344 0.1854-2.5327 10.023-1.008 11.82-2.5328 0.85636-0.72661 0.28057-2.4687-0.6737-2.4475-2.664 0.0592-12.12 0.59965-12.559 2.6193-1.8101 8.3304 2.7183 40.275 3.7676 45.61 1.3141 6.6803 49.223 32.045 70.134 44.143zm-7.6931 23.445c-0.2398 0.74743-0.83042 1.2215-1.3183 1.0583-0.48793-0.16326-0.68931-0.90238-0.44951-1.6498s0.83042-1.2215 1.3184-1.0583c0.48792 0.16326 0.6893 0.90238 0.4495 1.6498zm-2.2174 4.7758c-0.23979 0.74744-0.83042 1.2216-1.3183 1.0583-0.48793-0.16326-0.68931-0.90238-0.44951-1.6498s0.83043-1.2215 1.3184-1.0583c0.48793 0.16326 0.68931 0.90237 0.4495 1.6498zm-3.326 3.4113c-0.2398 0.74743-0.83042 1.2216-1.3183 1.0583-0.48793-0.16327-0.68931-0.90238-0.44951-1.6498 0.2398-0.74743 0.83042-1.2215 1.3184-1.0583 0.48793 0.16326 0.6893 0.90237 0.4495 1.6498zm7.846-8.1019c-0.2398 0.74743-0.83042 1.2216-1.3183 1.0583-0.48793-0.16326-0.68931-0.90237-0.44951-1.6498 0.2398-0.74743 0.83042-1.2215 1.3184-1.0583 0.48792 0.16326 0.6893 0.90238 0.4495 1.6498zm0.0853-4.7759c-0.23979 0.74744-0.83042 1.2216-1.3183 1.0583-0.48793-0.16327-0.68931-0.90238-0.4495-1.6498 0.23979-0.74743 0.83042-1.2216 1.3184-1.0583 0.48792 0.16326 0.6893 0.90237 0.44949 1.6498zm1.2792 2.0468c-0.23979 0.74743-0.83042 1.2216-1.3183 1.0583-0.48793-0.16326-0.68931-0.90237-0.4495-1.6498 0.23979-0.74743 0.83042-1.2215 1.3184-1.0583 0.48792 0.16326 0.6893 0.90238 0.44949 1.6498zm1.2792-4.3494c-0.23979 0.74743-0.83042 1.2215-1.3183 1.0583-0.48793-0.16326-0.68931-0.90237-0.4495-1.6498 0.23979-0.74743 0.83042-1.2215 1.3184-1.0583 0.48792 0.16326 0.6893 0.90238 0.44949 1.6498zm2.8996-4.1789c-0.2398 0.74744-0.83043 1.2216-1.3184 1.0583-0.48793-0.16327-0.68931-0.90238-0.4495-1.6498 0.2398-0.74742 0.83042-1.2215 1.3184-1.0583 0.48792 0.16326 0.6893 0.90237 0.4495 1.6498zm1.194-4.6053c-0.23979 0.74744-0.83042 1.2216-1.3183 1.0583-0.48793-0.16327-0.68931-0.90238-0.44951-1.6498 0.2398-0.74742 0.83043-1.2215 1.3184-1.0583 0.48793 0.16326 0.68931 0.90237 0.4495 1.6498zm-0.17057-3.4966c-0.23979 0.74743-0.83042 1.2216-1.3183 1.0583-0.48793-0.16327-0.68931-0.90238-0.4495-1.6498 0.23979-0.74743 0.83042-1.2215 1.3184-1.0583 0.48792 0.16326 0.6893 0.90238 0.44949 1.6498zm2.6438-2.5585c-0.2398 0.74744-0.83042 1.2216-1.3183 1.0583-0.48793-0.16326-0.68931-0.90238-0.44951-1.6498s0.83043-1.2215 1.3184-1.0583c0.48793 0.16326 0.68931 0.90238 0.4495 1.6498zm-4.8611 8.6136c-0.2398 0.74743-0.83042 1.2215-1.3183 1.0583-0.48793-0.16326-0.68931-0.90238-0.44951-1.6498s0.83042-1.2216 1.3184-1.0583c0.48792 0.16326 0.6893 0.90237 0.4495 1.6498z" fill="#dcbd4d" stroke="#545710" stroke-linejoin="round" stroke-width=".87803"/>
  </g>
  <path d="m166.73 769.89c-3.0605-2.4856 0.95123-8.4374 3.521-11.963 2.6006-3.5682 7.2268-10.26 4.0198-12.671 3.5404 1.9092 8.0864-4.3652 9.8969-7.7813 1.8391-3.47 6.1226-11.178 9.591-9.2126" fill="none" stroke="#000" stroke-width="2.0262"/>
  <g fill-rule="evenodd">
   <ellipse transform="rotate(45)" cx="570.53" cy="429.8" rx="32.727" ry="33.079" fill="#8dc4c1" stroke="#a299c0" stroke-opacity=".89219" stroke-width="2.0262"/>
   <path d="m102.85 739.66c-3.8123 0.29176-22.504-8.5242-24.3-29.309-1.9066-22.065 14.534-35.027 18.116-35.082 18.199-0.28078 30.919 8.5235 34.552 27.017 3.2608 16.602-9.962 34.549-28.368 37.373z" fill="#8dbac1"/>
   <path d="m111.29 700.13c-0.99171-4.1072 0.0149-8.2974 2.2468-9.353 2.232-1.0557 4.8483 1.4209 5.84 5.5281 0.99171 4.1072-0.0149 8.2974-2.2468 9.3531-2.226 1.0529-4.8341-1.4053-5.8325-5.4972z" fill="#97d6c1" stroke="#97c4c1" stroke-linejoin="round" stroke-width=".48462"/>
  </g>
  <path d="m306.5 657.2h-120.48m119.8-39.089h-134.72m74.677 174.18h60.722" fill="none" stroke="#000" stroke-width="2.0262"/>
  <g fill="#000000" fill-opacity=".99701" fill-rule="evenodd" font-family="Arial" font-size="21.333px" stroke-linecap="square" stroke-width="6.8032">
   <text x="310.32047" y="624.09766" font-weight="bold" stroke="#000000" style="line-height:0" xml:space="preserve"><tspan x="310.32047" y="624.09766" fill="#000000" font-family="Arial" font-size="21.333px" font-weight="normal" stroke="none">Retinal neurons</tspan></text>
   <g>
    <text x="320.32047" y="656.24048" style="line-height:0" xml:space="preserve"><tspan x="320.32047" y="656.24048">Axons from</tspan></text>
    <text x="387.46332" y="596.24048" style="line-height:0" xml:space="preserve"><tspan x="387.46332" y="596.24048"> </tspan></text>
    <text x="318.89188" y="676.95477" style="line-height:0" xml:space="preserve"><tspan x="318.89188" y="676.95477">retinal neurons</tspan></text>
    <text x="314.60617" y="801.95477" style="line-height:0" xml:space="preserve"><tspan x="314.60617" y="801.95477">Optic nerve</tspan></text>
   </g>
  </g>
  <path d="m168.18 744.81h-24.286l40 135v0" fill="none" stroke="#000" stroke-linecap="square" stroke-width="2"/>
  <text x="180.3754" y="900.69104" fill="#000000" fill-opacity=".99701" fill-rule="evenodd" font-family="Arial" font-size="21.333px" stroke-linecap="square" stroke-width="2" style="line-height:0" xml:space="preserve"><tspan x="180.3754" y="900.69104">Optic disc (blind spot)</tspan></text>
 </g>
</svg>
